<svg width="27" height="27" viewBox="0 0 27 27" fill="none" xmlns="http://www.w3.org/2000/svg">
<path d="M4.73333 20.8333C6.13333 19.8556 7.52222 19.1056 8.9 18.5833C10.2778 18.0611 11.7556 17.8 13.3333 17.8C14.9111 17.8 16.3944 18.0611 17.7833 18.5833C19.1722 19.1056 20.5667 19.8556 21.9667 20.8333C22.9444 19.6333 23.6389 18.4222 24.05 17.2C24.4611 15.9778 24.6667 14.6889 24.6667 13.3333C24.6667 10.1111 23.5833 7.41667 21.4167 5.25C19.25 3.08333 16.5556 2 13.3333 2C10.1111 2 7.41667 3.08333 5.25 5.25C3.08333 7.41667 2 10.1111 2 13.3333C2 14.6889 2.21111 15.9778 2.63333 17.2C3.05556 18.4222 3.75556 19.6333 4.73333 20.8333ZM13.3271 14.3333C12.0424 14.3333 10.9611 13.8924 10.0833 13.0105C9.20555 12.1286 8.76667 11.0452 8.76667 9.76047C8.76667 8.47571 9.20762 7.39444 10.0895 6.51667C10.9714 5.63889 12.0548 5.2 13.3395 5.2C14.6243 5.2 15.7056 5.64096 16.5833 6.52287C17.4611 7.40478 17.9 8.48811 17.9 9.77287C17.9 11.0576 17.459 12.1389 16.5771 13.0167C15.6952 13.8944 14.6119 14.3333 13.3271 14.3333ZM13.3489 26.6667C11.5163 26.6667 9.78889 26.3167 8.16667 25.6167C6.54444 24.9167 5.12778 23.9611 3.91667 22.75C2.70556 21.5389 1.75 20.1248 1.05 18.5078C0.35 16.8908 0 15.163 0 13.3245C0 11.4859 0.35 9.76111 1.05 8.15C1.75 6.53889 2.70556 5.12778 3.91667 3.91667C5.12778 2.70556 6.54184 1.75 8.15887 1.05C9.77589 0.35 11.5037 0 13.3422 0C15.1807 0 16.9056 0.35 18.5167 1.05C20.1278 1.75 21.5389 2.70556 22.75 3.91667C23.9611 5.12778 24.9167 6.53924 25.6167 8.15107C26.3167 9.76289 26.6667 11.4851 26.6667 13.3177C26.6667 15.1504 26.3167 16.8778 25.6167 18.5C24.9167 20.1222 23.9611 21.5389 22.75 22.75C21.5389 23.9611 20.1274 24.9167 18.5156 25.6167C16.9038 26.3167 15.1816 26.6667 13.3489 26.6667ZM13.3333 24.6667C14.5556 24.6667 15.75 24.4889 16.9167 24.1333C18.0833 23.7778 19.2333 23.1556 20.3667 22.2667C19.2333 21.4667 18.0778 20.8556 16.9 20.4333C15.7222 20.0111 14.5333 19.8 13.3333 19.8C12.1333 19.8 10.9444 20.0111 9.76667 20.4333C8.58889 20.8556 7.43333 21.4667 6.3 22.2667C7.43333 23.1556 8.58333 23.7778 9.75 24.1333C10.9167 24.4889 12.1111 24.6667 13.3333 24.6667ZM13.3333 12.3333C14.0889 12.3333 14.7056 12.0944 15.1833 11.6167C15.6611 11.1389 15.9 10.5222 15.9 9.76667C15.9 9.01111 15.6611 8.39444 15.1833 7.91667C14.7056 7.43889 14.0889 7.2 13.3333 7.2C12.5778 7.2 11.9611 7.43889 11.4833 7.91667C11.0056 8.39444 10.7667 9.01111 10.7667 9.76667C10.7667 10.5222 11.0056 11.1389 11.4833 11.6167C11.9611 12.0944 12.5778 12.3333 13.3333 12.3333Z" fill="#5F6368"/>
</svg>
