<svg width="301" height="397" viewBox="0 0 301 397" fill="none" xmlns="http://www.w3.org/2000/svg">
<path d="M210.252 11.1109C134.233 -20.3891 45.6331 18.5418 12.3742 98.0588C-0.722149 129.37 -2.92588 162.168 3.54439 192.457C3.60102 193.142 3.38343 193.791 3.49025 194.469L35.0349 376.482C36.4978 384.923 41.991 391.902 49.6537 395.077C57.3164 398.252 66.1621 397.215 73.2108 392.301L225.204 286.34C225.769 285.941 226.072 285.327 226.601 284.885C252.754 268.114 274.585 243.449 287.681 212.138C320.94 132.621 286.271 42.6109 210.252 11.1109ZM129.953 203.094C104.613 192.594 93.0569 162.591 104.143 136.085C115.23 109.579 144.763 96.6024 170.103 107.102C195.442 117.602 206.999 147.606 195.912 174.111C184.826 200.617 155.293 213.594 129.953 203.094Z" fill="#FFECFD"/>
</svg>
