<svg width="27" height="18" viewBox="0 0 27 18" fill="none" xmlns="http://www.w3.org/2000/svg">
<path d="M13.3587 13.9764C14.7304 13.9764 15.8952 13.4963 16.8531 12.5361C17.811 11.5759 18.29 10.41 18.29 9.03828C18.29 7.66659 17.8099 6.50178 16.8497 5.54386C15.8895 4.58594 14.7235 4.10699 13.3518 4.10699C11.9801 4.10699 10.8153 4.58709 9.85738 5.54729C8.89947 6.50747 8.42051 7.67342 8.42051 9.04513C8.42051 10.4168 8.90061 11.5816 9.86081 12.5396C10.821 13.4975 11.9869 13.9764 13.3587 13.9764ZM13.3484 12.2928C12.4434 12.2928 11.6765 11.9761 11.0475 11.3426C10.4186 10.7091 10.1041 9.93986 10.1041 9.03489C10.1041 8.1299 10.4209 7.36294 11.0543 6.734C11.6878 6.10506 12.4571 5.7906 13.3621 5.7906C14.267 5.7906 15.034 6.10734 15.6629 6.74082C16.2919 7.37432 16.6063 8.14356 16.6063 9.04853C16.6063 9.95352 16.2896 10.7205 15.6561 11.3494C15.0226 11.9784 14.2534 12.2928 13.3484 12.2928ZM13.3552 17.75C10.5299 17.75 7.97542 16.9469 5.6919 15.3407C3.40838 13.7345 1.70542 11.6349 0.583008 9.04171C1.70542 6.44856 3.40838 4.34888 5.6919 2.74268C7.97542 1.13648 10.5299 0.333374 13.3552 0.333374C16.1806 0.333374 18.735 1.13648 21.0186 2.74268C23.3021 4.34888 25.005 6.44856 26.1275 9.04171C25.005 11.6349 23.3021 13.7345 21.0186 15.3407C18.735 16.9469 16.1806 17.75 13.3552 17.75ZM13.3503 16.0084C15.6952 16.0084 17.8497 15.3746 19.8139 14.1071C21.7781 12.8395 23.2731 11.1511 24.2987 9.04171C23.2731 6.93236 21.7798 5.24391 19.8188 3.97636C17.8579 2.70881 15.705 2.07504 13.3601 2.07504C11.0153 2.07504 8.86076 2.70881 6.89655 3.97636C4.93234 5.24391 3.42773 6.93236 2.38273 9.04171C3.42773 11.1511 4.9307 12.8395 6.89164 14.1071C8.85261 15.3746 11.0055 16.0084 13.3503 16.0084Z" fill="black"/>
</svg>
