<svg width="27" height="27" viewBox="0 0 27 27" fill="none" xmlns="http://www.w3.org/2000/svg">
<path d="M13.335 26.67C11.4681 26.67 9.72344 26.32 8.10101 25.6199C6.47859 24.9198 5.0673 23.9697 3.86715 22.7695C2.667 21.5694 1.72244 20.1525 1.03346 18.519C0.344488 16.8854 0 15.1352 0 13.2683C0 11.4014 0.344488 9.66232 1.03346 8.05101C1.72244 6.43969 2.667 5.03396 3.86715 3.83381C5.0673 2.63366 6.47859 1.69466 8.10101 1.01679C9.72344 0.338931 11.4681 0 13.335 0C15.2019 0 16.9466 0.338931 18.569 1.01679C20.1914 1.69466 21.6027 2.63366 22.8029 3.83381C24.003 5.03396 24.9476 6.43969 25.6365 8.05101C26.3255 9.66232 26.67 11.4014 26.67 13.2683C26.67 15.1352 26.3255 16.8854 25.6365 18.519C24.9476 20.1525 24.003 21.5694 22.8029 22.7695C21.6027 23.9697 20.1914 24.9198 18.569 25.6199C16.9466 26.32 15.2019 26.67 13.335 26.67ZM13.335 24.7364C14.1129 23.9363 14.763 23.0195 15.2852 21.9861C15.8075 20.9526 16.2354 19.7247 16.5687 18.3023H10.1346C10.4458 19.6358 10.8625 20.8359 11.3848 21.9027C11.907 22.9695 12.5571 23.9141 13.335 24.7364ZM10.5013 24.3364C9.94569 23.4918 9.46785 22.5806 9.0678 21.6027C8.66775 20.6248 8.33438 19.5247 8.06767 18.3023H3.06705C3.9116 19.8803 4.8895 21.1193 6.00075 22.0194C7.112 22.9195 8.61219 23.6919 10.5013 24.3364ZM16.202 24.303C17.8022 23.7919 19.2413 23.0251 20.5192 22.0028C21.7972 20.9804 22.8251 19.7469 23.6029 18.3023H18.6357C18.3467 19.5024 18.0078 20.5915 17.6189 21.5694C17.2299 22.5473 16.7577 23.4585 16.202 24.303ZM2.4003 16.302H7.70096C7.63429 15.702 7.59539 15.163 7.58428 14.6852C7.57317 14.2073 7.56761 13.7351 7.56761 13.2683C7.56761 12.7127 7.57872 12.2182 7.60095 11.7848C7.62318 11.3514 7.66762 10.868 7.7343 10.3346H2.4003C2.24472 10.868 2.13916 11.3459 2.08359 11.7681C2.02803 12.1904 2.00025 12.6905 2.00025 13.2683C2.00025 13.8462 2.02803 14.3629 2.08359 14.8185C2.13916 15.2741 2.24472 15.7686 2.4003 16.302ZM9.76789 16.302H16.9354C17.0243 15.6131 17.0799 15.0519 17.1021 14.6185C17.1244 14.1851 17.1355 13.7351 17.1355 13.2683C17.1355 12.8238 17.1244 12.396 17.1021 11.9848C17.0799 11.5737 17.0243 11.0236 16.9354 10.3346H9.76789C9.67899 11.0236 9.62342 11.5737 9.6012 11.9848C9.57897 12.396 9.56786 12.8238 9.56786 13.2683C9.56786 13.7351 9.57897 14.1851 9.6012 14.6185C9.62342 15.0519 9.67899 15.6131 9.76789 16.302ZM18.9357 16.302H24.2697C24.4253 15.7686 24.5308 15.2741 24.5864 14.8185C24.642 14.3629 24.6698 13.8462 24.6698 13.2683C24.6698 12.6905 24.642 12.1904 24.5864 11.7681C24.5308 11.3459 24.4253 10.868 24.2697 10.3346H18.969C19.0357 11.1125 19.0802 11.707 19.1024 12.1182C19.1246 12.5293 19.1357 12.9127 19.1357 13.2683C19.1357 13.7573 19.1191 14.2184 19.0857 14.6518C19.0524 15.0852 19.0024 15.6353 18.9357 16.302ZM18.6023 8.33438H23.6029C22.8695 6.80085 21.8638 5.52291 20.5859 4.50056C19.308 3.47821 17.8356 2.7559 16.1687 2.33363C16.7243 3.15595 17.1966 4.04495 17.5855 5.00063C17.9745 5.9563 18.3134 7.06755 18.6023 8.33438ZM10.1346 8.33438H16.6021C16.3576 7.15645 15.9464 6.01742 15.3686 4.91728C14.7907 3.81714 14.1129 2.8448 13.335 2.00025C12.6238 2.60033 12.0237 3.38931 11.5348 4.36721C11.0458 5.34511 10.5791 6.6675 10.1346 8.33438ZM3.06705 8.33438H8.10101C8.34549 7.13422 8.65664 6.06187 9.03446 5.11731C9.41229 4.17274 9.89013 3.25596 10.468 2.36696C8.8011 2.78924 7.34536 3.50044 6.10076 4.50056C4.85616 5.50069 3.84492 6.77863 3.06705 8.33438Z" fill="#5F6368"/>
</svg>
