<svg width="22" height="18" viewBox="0 0 22 18" fill="none" xmlns="http://www.w3.org/2000/svg">
<path d="M0.916504 17.4167L10.9998 0L21.0832 17.4167H0.916504ZM3.29984 16.0417H18.6998L10.9998 2.75L3.29984 16.0417ZM11.0955 14.7354C11.2915 14.7354 11.4544 14.6691 11.5842 14.5366C11.7141 14.4041 11.779 14.2398 11.779 14.0439C11.779 13.848 11.7127 13.6851 11.5802 13.5552C11.4477 13.4253 11.2834 13.3604 11.0875 13.3604C10.8916 13.3604 10.7287 13.4267 10.5988 13.5592C10.4689 13.6918 10.404 13.856 10.404 14.0519C10.404 14.2479 10.4703 14.4108 10.6028 14.5406C10.7354 14.6705 10.8996 14.7354 11.0955 14.7354ZM10.404 12.1917H11.779V7.05833H10.404V12.1917Z" fill="#E72113"/>
</svg>
